<svg width="72" height="59" viewBox="0 0 72 59" fill="none" xmlns="http://www.w3.org/2000/svg">
<path d="M65.6471 8.42857H55.0588V6.32143C55.0588 4.64488 54.3895 3.037 53.1981 1.8515C52.0067 0.666005 50.3908 0 48.7059 0H23.2941C21.6092 0 19.9933 0.666005 18.8019 1.8515C17.6105 3.037 16.9412 4.64488 16.9412 6.32143V8.42857H6.35294C4.74208 8.3599 3.16944 8.92873 1.97892 10.0107C0.788406 11.0926 0.0768997 12.5996 0 14.2021V26.0864C0.0419894 27.3157 0.474568 28.5 1.23556 29.4693C1.99656 30.4385 3.04678 31.1427 4.23529 31.4807V52.5521C4.21839 53.3929 4.37023 54.2285 4.68192 55.0101C4.99361 55.7917 5.45889 56.5036 6.0505 57.104C6.64212 57.7045 7.34819 58.1814 8.12736 58.507C8.90654 58.8326 9.74316 59.0002 10.5882 59H61.4118C63.0967 59 64.7126 58.334 65.904 57.1485C67.0954 55.963 67.7647 54.3551 67.7647 52.6786V31.6071C68.9532 31.2692 70.0034 30.565 70.7644 29.5957C71.5254 28.6265 71.958 27.4421 72 26.2129V14.2021C71.9231 12.5996 71.2116 11.0926 70.0211 10.0107C68.8306 8.92873 67.2579 8.3599 65.6471 8.42857ZM21.1765 6.32143C21.1765 5.76258 21.3996 5.22662 21.7967 4.83145C22.1938 4.43629 22.7325 4.21429 23.2941 4.21429H48.7059C49.2675 4.21429 49.8062 4.43629 50.2033 4.83145C50.6004 5.22662 50.8235 5.76258 50.8235 6.32143V8.42857H21.1765V6.32143ZM61.4118 54.7857H10.5882C10.0266 54.7857 9.48797 54.5637 9.09083 54.1685C8.6937 53.7734 8.47059 53.2374 8.47059 52.6786V32.6607L34.1365 39.5721C34.754 39.7621 35.396 39.8615 36.0424 39.8671C36.6586 39.873 37.2724 39.7878 37.8635 39.6143L63.5294 32.6607V52.6786C63.5294 53.2374 63.3063 53.7734 62.9092 54.1685C62.512 54.5637 61.9734 54.7857 61.4118 54.7857ZM67.7647 26.0864C67.7221 26.4448 67.5622 26.7793 67.3096 27.0383C67.057 27.2972 66.7258 27.4663 66.3671 27.5193L36.72 35.5264C36.2647 35.6661 35.7777 35.6661 35.3224 35.5264L5.67529 27.5614C5.30247 27.5152 4.95662 27.3439 4.69483 27.0757C4.43304 26.8075 4.27094 26.4586 4.23529 26.0864V14.2021C4.23529 13.3593 5.20941 12.6429 6.35294 12.6429H16.9412V16.8571H21.1765V12.6429H50.8235V16.8571H55.0588V12.6429H65.6471C66.7906 12.6429 67.7647 13.3593 67.7647 14.2021V26.0864ZM38.1176 31.6071C38.1176 32.0239 37.9935 32.4313 37.7608 32.7778C37.5281 33.1243 37.1973 33.3944 36.8104 33.5539C36.4234 33.7134 35.9977 33.7551 35.5869 33.6738C35.1761 33.5925 34.7988 33.3918 34.5026 33.0971C34.2064 32.8024 34.0048 32.427 33.923 32.0182C33.8413 31.6095 33.8833 31.1858 34.0436 30.8008C34.2038 30.4157 34.4753 30.0867 34.8235 29.8551C35.1717 29.6236 35.5812 29.5 36 29.5C36.5616 29.5 37.1003 29.722 37.4974 30.1172C37.8945 30.5123 38.1176 31.0483 38.1176 31.6071Z" fill="white"/>
</svg>
