<svg width="136" height="135" viewBox="0 0 136 135" fill="none" xmlns="http://www.w3.org/2000/svg">
<path fill-rule="evenodd" clip-rule="evenodd" d="M51.0599 -18.726C67.0545 -19.4879 83.3501 -22.4461 97.8107 -15.4629C114.084 -7.60436 131.691 4.13957 135.464 22.0336C139.204 39.7715 122.374 54.3613 116.114 71.3505C110.252 87.2583 112.069 106.532 99.996 118.287C87.2855 130.663 68.5842 136.444 51.0599 134.693C34.2953 133.018 7.16615 123.172 -6 112.5C-18.5011 102.367 -17.6947 89.6344 -23.3002 74.4213C-29.0411 58.8403 -27.6872 41.3817 -22.0813 25.75C-16.6101 10.4941 -6.32646 -2.81511 7.39029 -11.1561C20.3776 -19.0535 35.939 -18.0058 51.0599 -18.726Z" fill="url(#paint0_linear)"/>
<defs>
<linearGradient id="paint0_linear" x1="54.5" y1="-20" x2="54.5" y2="135" gradientUnits="userSpaceOnUse">
<stop stop-color="#F57C00"/>
<stop offset="1" stop-color="#D32F2F"/>
</linearGradient>
</defs>
</svg>
